Coordinates
version=1
nRows=4
nColumns=107
inDegrees=yes

Units are S.I. units (second, meters, Newtons, ...)
If the header above contains a line with 'inDegrees', this indicates whether rotational values are in degrees (yes) or radians (no).

endheader
time	sternoclavicular_r2	sternoclavicular_r3	unrotscap_r3	unrotscap_r2	acromioclavicular_r2	acromioclavicular_r3	acromioclavicular_r1	unrothum_r1	unrothum_r3	unrothum_r2	elv_angle	shoulder_elv	shoulder1_r2	shoulder_rot	elbow_flexion	pro_sup	deviation	flexion	proximal_distal_r1	proximal_distal_r3	cmc_flexion	cmc_abduction	mp_flexion	ip_flexion	mcp2_flexion	mcp2_abduction	pm2_flexion	md2_flexion	mcp3_flexion	mcp3_abduction	pm3_flexion	md3_flexion	mcp4_flexion	mcp4_abduction	pm4_flexion	md4_flexion	mcp5_flexion	mcp5_abduction	pm5_flexion	md5_flexion	bicpt_tx	bicpt_ty	bicpt_tz	bicpt2_tx	bicpt2_ty	bicpt2_tz	ptpt_tx	ptpt_ty	ptpt_tz	FCUpt_tx	FCUpt_ty	FCUpt_tz	EDCpt_tx	EDCpt_ty	EDCpt_tz	APLpt_tx	APLpt_ty	APLpt_tz	FPLpt_tx	FPLpt_ty	FPLpt_tz	FPLpt2_tx	FPLpt2_ty	FPLpt2_tz	PEC1pt2_tx	PEC1pt2_ty	PEC1pt2_tz	PEC1pt3_tx	PEC1pt3_ty	PEC1pt3_tz	PEC2pt2_tx	PEC2pt2_ty	PEC2pt2_tz	PEC2pt3_tx	PEC2pt3_ty	PEC2pt3_tz	PEC3pt2_tx	PEC3pt2_ty	PEC3pt2_tz	PEC3pt3_tx	PEC3pt3_ty	PEC3pt3_tz	DELT2pt2a_tx	DELT2pt2a_ty	DELT2pt2a_tz	DELT2pt2_tx	DELT2pt2_ty	DELT2pt2_tz	LAT1pt2_tx	LAT1pt2_ty	LAT1pt2_tz	LAT1pt3_tx	LAT1pt3_ty	LAT1pt3_tz	LAT2pt2_tx	LAT2pt2_ty	LAT2pt2_tz	LAT2pt3_tx	LAT2pt3_ty	LAT2pt3_tz	LAT3pt2_tx	LAT3pt2_ty	LAT3pt2_tz	LAT3pt3_tx	LAT3pt3_ty	LAT3pt3_tz
      1.16666667	     -0.32768431	      0.13879161	     -0.13879161	      0.32768431	     -0.06634941	      0.53621256	      0.24102386	     -0.24102386	     -0.53621256	      0.06634941	     97.99122800	     77.58217232	     -1.71026957	    -19.87685037	     31.65197386	     81.95136512	      0.31099664	      0.19585623	      0.34290111	      0.09792812	      2.92816649	      4.47223675	    -16.76068529	     -5.51506328	     22.58617638	     12.59968373	     29.68020734	      4.20829052	     16.11413264	      5.74813718	     21.75225253	     18.27706174	     20.90274109	     -1.50945294	     22.07351527	     22.57075763	     20.16099974	    -13.86118944	     28.64606852	      5.34201776	      0.00094695	     -0.03122780	     -0.00488434	      0.01463966	     -0.01879841	     -0.00175787	      0.00149472	     -0.06881544	     -0.00665162	      0.01227544	     -0.18237251	     -0.00002154	     -0.00983414	      0.00335837	     -0.00063166	     -0.00023251	     -0.00009300	     -0.00046501	     -0.00029761	     -0.00089283	     -0.00050222	      0.00004175	     -0.00006844	     -0.00008213	      0.00254297	      0.00892196	      0.00620658	     -0.00831854	      0.02008518	     -0.01905075	      0.00254297	      0.00892196	      0.00620658	      0.00056032	      0.01861974	     -0.00978398	      0.00400114	      0.00496139	      0.01609623	      0.00000000	      0.00805171	      0.00000000	     -0.00728411	     -0.03366207	     -0.00664049	      0.01370515	     -0.00042816	     -0.00325549	     -0.00090513	      0.01517164	     -0.00620658	      0.00249987	      0.02189543	     -0.01810252	     -0.00607728	      0.01314588	     -0.00556006	     -0.01267177	      0.02775720	     -0.03107600	     -0.02379189	      0.01469752	     -0.00745652	     -0.01577506	      0.03206732	     -0.03883422
      1.20000000	     -0.32742068	      0.13867995	     -0.13867995	      0.32742068	     -0.06629603	      0.53578118	      0.24082995	     -0.24082995	     -0.53578118	      0.06629603	     98.04019515	     77.51975655	     -1.71112420	    -20.13824604	     31.64577066	     82.03169008	      0.31151353	      0.18512116	      0.34333944	      0.09256058	      3.37770592	      3.79844987	    -16.40105970	     -5.07830009	     22.73735271	     12.56938678	     29.89567463	      4.27505994	     16.52434525	      5.67397988	     21.74248117	     18.23413767	     21.66964483	     -1.68323725	     22.27457900	     22.44420116	     20.48630957	    -13.86193134	     28.95719716	      5.33971510	      0.00094674	     -0.03122709	     -0.00488423	      0.01463210	     -0.01879673	     -0.00174457	      0.00148878	     -0.06881928	     -0.00665809	      0.01228457	     -0.18236988	     -0.00001957	     -0.00984378	      0.00336268	     -0.00063406	     -0.00021810	     -0.00008724	     -0.00043620	     -0.00027917	     -0.00083750	     -0.00047109	      0.00004242	     -0.00007811	     -0.00009373	      0.00254093	      0.00891478	      0.00620159	     -0.00831185	      0.02006902	     -0.01903542	      0.00254093	      0.00891478	      0.00620159	      0.00055987	      0.01860476	     -0.00977611	      0.00399881	      0.00495740	      0.01609066	      0.00000000	      0.00803866	      0.00000000	     -0.00727825	     -0.03363499	     -0.00662966	      0.01385601	     -0.00043618	     -0.00334619	     -0.00090440	      0.01515943	     -0.00620159	      0.00249786	      0.02187782	     -0.01808796	     -0.00607239	      0.01313530	     -0.00555559	     -0.01266157	      0.02773487	     -0.03105100	     -0.02377275	      0.01468570	     -0.00745052	     -0.01576236	      0.03204153	     -0.03880298
      1.23333333	     -0.32749119	      0.13870981	     -0.13870981	      0.32749119	     -0.06631030	      0.53589655	      0.24088181	     -0.24088181	     -0.53589655	      0.06631030	     98.04294932	     77.53645025	     -1.71117227	    -20.14663475	     31.65332623	     82.02806545	      0.31153924	      0.18510967	      0.34336102	      0.09255483	      3.38046938	      3.79596216	    -16.39980058	     -5.07786296	     22.73551144	     12.56879868	     29.89565150	      4.27504714	     16.52495439	      5.67316213	     21.74309419	     18.23430614	     21.67268228	     -1.68397626	     22.27609090	     22.44447763	     20.48673186	    -13.86200049	     28.95760624	      5.33979595	      0.00094699	     -0.03122796	     -0.00488437	      0.01463243	     -0.01879878	     -0.00174517	      0.00148905	     -0.06881911	     -0.00665780	      0.01228416	     -0.18237000	     -0.00001966	     -0.00984334	      0.00336248	     -0.00063396	     -0.00021809	     -0.00008724	     -0.00043618	     -0.00027915	     -0.00083746	     -0.00047107	      0.00004242	     -0.00007816	     -0.00009380	      0.00254147	      0.00891670	      0.00620292	     -0.00831364	      0.02007334	     -0.01903952	      0.00254147	      0.00891670	      0.00620292	      0.00055999	      0.01860876	     -0.00977822	      0.00399944	      0.00495846	      0.01609215	      0.00000000	      0.00804216	      0.00000000	     -0.00727982	     -0.03364223	     -0.00663256	      0.01386073	     -0.00043644	     -0.00334926	     -0.00090459	      0.01516270	     -0.00620292	      0.00249840	      0.02188253	     -0.01809185	     -0.00607369	      0.01313813	     -0.00555678	     -0.01266430	      0.02774084	     -0.03105768	     -0.02377786	      0.01468886	     -0.00745212	     -0.01576576	      0.03204843	     -0.03881133
      1.26666667	     -0.32483882	      0.13758639	     -0.13758639	      0.32483882	     -0.06577325	      0.53155630	      0.23893090	     -0.23893090	     -0.53155630	      0.06577325	     98.56049284	     76.90847889	     -1.72020511	    -22.97068886	     31.72128849	     83.83674588	      0.27972094	      0.12330181	      0.31557763	      0.06165091	      3.64456821	      2.22161854	    -14.55434349	     -6.25790059	     22.25127892	     12.55239708	     30.86902515	      4.06078016	     16.51731162	      5.63822566	     23.01704000	     20.04972665	     22.28582051	     -1.96729740	     23.01693844	     24.74245363	     20.52915098	    -13.88915973	     29.84985606	      5.44552904	      0.00094924	     -0.03123574	     -0.00488562	      0.01445823	     -0.01881724	     -0.00144325	      0.00135541	     -0.06890552	     -0.00680350	      0.01249021	     -0.18231033	      0.00002596	     -0.01006039	      0.00346002	     -0.00068901	     -0.00013889	     -0.00005555	     -0.00027777	     -0.00017777	     -0.00053332	     -0.00029999	      0.00004242	     -0.00008374	     -0.00010048	      0.00252089	      0.00884448	      0.00615268	     -0.00824630	      0.01991077	     -0.01888532	      0.00252089	      0.00884448	      0.00615268	      0.00055545	      0.01845805	     -0.00969902	      0.00397591	      0.00491830	      0.01603561	      0.00000000	      0.00791148	      0.00000000	     -0.00722086	     -0.03336976	     -0.00652410	      0.01543148	     -0.00052488	     -0.00439755	     -0.00089727	      0.01503989	     -0.00615268	      0.00247816	      0.02170530	     -0.01794533	     -0.00602450	      0.01303173	     -0.00551178	     -0.01256173	      0.02751617	     -0.03080614	     -0.02358529	      0.01456990	     -0.00739177	     -0.01563807	      0.03178886	     -0.03849700
